<svg width="660" height="301" viewBox="0 0 660 301" fill="none" xmlns="http://www.w3.org/2000/svg">
<g filter="url(#filter0_d_2364_60)">
<mask id="path-1-outside-1_2364_60" maskUnits="userSpaceOnUse" x="9" y="6" width="641" height="281" fill="black">
<rect fill="white" x="9" y="6" width="641" height="281"/>
<path d="M107.196 95.1336L121.102 37.111C121.102 37.111 121.595 35.2666 122.58 31.5778C123.828 27.8435 126.784 23.8135 131.448 19.4879C136.374 15.1167 144.378 12.1072 155.459 10.4594C166.495 8.54884 174.062 9.26855 178.16 12.6185C182.476 15.6603 184.563 19.8997 184.422 25.3369C184.498 30.4657 183.609 35.4911 181.754 40.4129C180.633 43.3134 178.516 48.2806 175.403 55.3147C172.554 62.3032 169.315 70.171 165.687 78.9181C162.06 87.6651 158.518 96.1267 155.062 104.303C151.561 112.216 148.643 118.81 146.308 124.086C144.237 129.316 143.201 131.931 143.201 131.931L228.347 213.4C228.347 213.4 229.186 214.338 230.863 216.212C232.496 217.824 233.585 220.207 234.131 223.36C234.939 226.467 234.04 229.871 231.433 233.57C229.088 237.223 223.785 240.983 215.524 244.849C207.262 248.715 199.796 250.143 193.126 249.132C186.719 248.077 181.226 246.05 176.648 243.054C172.024 239.795 168.519 236.748 166.134 233.914C163.749 231.079 162.556 229.662 162.556 229.662L130.038 182.518L119.626 241.965C119.626 241.965 119.174 243.262 118.27 245.854C117.32 248.183 114.553 250.963 109.97 254.192C105.65 257.375 98.2347 259.877 87.7244 261.697C77.2141 263.516 69.5384 262.951 64.6974 260C60.0737 256.741 57.3524 252.747 56.5336 248.017C55.6693 243.024 55.8611 238.661 57.1091 234.927C57.7962 232.643 59.4559 228.161 62.0882 221.48C64.6751 214.537 67.651 206.715 71.0159 198.013C74.3809 189.312 77.66 180.896 80.8531 172.765C84.0008 164.372 86.6104 157.56 88.6819 152.33C90.9707 146.792 92.1151 144.023 92.1151 144.023L19.5899 72.1411C19.5899 72.1411 18.597 71.0952 16.611 69.0033C14.8878 66.8659 13.7305 64.0893 13.1392 60.6734C12.5478 57.2576 13.8412 53.7861 17.0194 50.2589C20.1977 46.7317 26.8196 43.5555 36.8852 40.7303C45.4197 38.4409 52.6279 37.8696 58.5098 39.0163C64.3461 39.9004 68.9824 41.6687 72.4186 44.3214C76.0721 46.6659 78.6291 48.9296 80.0895 51.1124C81.8127 53.2498 82.6743 54.3185 82.6743 54.3185L107.196 95.1336Z"/>
<path d="M326.764 62.3669C335.207 67.5352 340.718 72.8758 343.298 78.3887C345.878 83.9016 347.442 87.1878 347.99 88.2473C349.358 90.896 350.433 93.4953 351.213 96.0451C352.209 98.7521 352.707 100.106 352.707 100.106C352.707 100.106 353.93 101.823 356.376 105.257C358.822 108.692 360.706 114.027 362.029 121.264C363.509 128.285 363.016 137.332 360.55 148.406C358.083 159.479 351.908 172.469 342.026 187.375C335.385 197.384 327.905 204.471 319.586 208.635C311.424 212.584 302.864 214.591 293.904 214.657C285.316 214.664 276.819 213.417 268.412 210.915C260.377 208.355 253.029 205.305 246.368 201.767C239.923 198.386 234.682 195.388 230.647 192.775C226.828 190.319 224.918 189.091 224.918 189.091C224.918 189.091 222.764 187.519 218.455 184.376C214.361 181.39 209.662 176.972 204.358 171.122C199.21 165.057 195.005 157.698 191.743 149.048C188.854 140.339 188.349 130.398 190.227 119.225C192.321 108.21 198.534 96.0729 208.865 82.8145C219.197 69.5561 229.768 60.2682 240.578 54.9509C251.761 49.5752 262.391 46.7671 272.469 46.5266C282.762 46.4432 291.926 47.6816 299.961 50.2418C308.211 52.9591 314.647 55.6739 319.27 58.386C324.266 61.0399 326.764 62.3669 326.764 62.3669ZM304.955 94.9794C304.955 94.9794 302.298 95.6814 296.982 97.0855C291.883 98.6467 285.654 101.53 278.296 105.734C271.153 110.096 264.517 116.478 258.388 124.88C252.416 133.067 248.671 140.238 247.153 146.392C245.634 152.546 245.167 157.486 245.75 161.212C246.705 164.879 247.829 167.184 249.122 168.127C250.414 169.07 252.854 170.025 256.44 170.99C260.399 171.898 265.135 171.062 270.648 168.482C276.161 165.901 282.189 159.901 288.731 150.48C294.173 142.567 297.869 135.69 299.818 129.851C301.983 124.168 303.216 118.631 303.518 113.24C304.192 107.791 304.671 101.704 304.955 94.9794Z"/>
<path d="M581.769 111.692C591.537 113.293 598.657 116.16 603.126 120.292C607.595 124.424 610.283 126.877 611.19 127.652C613.457 129.588 615.433 131.59 617.118 133.657C619.062 135.788 620.033 136.854 620.033 136.854C620.033 136.854 621.814 137.982 625.375 140.24C628.936 142.498 632.694 146.728 636.649 152.931C640.669 158.875 643.625 167.439 645.519 178.625C647.413 189.811 646.596 204.171 643.067 221.704C640.693 233.479 636.44 242.864 630.307 249.859C624.239 256.595 617.068 261.684 608.795 265.125C600.845 268.372 592.505 270.423 583.775 271.278C575.368 271.938 567.413 271.886 559.91 271.123C552.665 270.423 546.681 269.624 541.958 268.727C537.494 267.893 535.262 267.476 535.262 267.476C535.262 267.476 532.674 266.834 527.498 265.549C522.58 264.328 516.562 262.009 509.442 258.593C502.386 254.918 495.716 249.69 489.431 242.909C483.469 235.934 479.251 226.919 476.775 215.863C474.558 204.872 475.733 191.288 480.298 175.111C484.864 158.935 491.149 146.345 499.154 137.342C507.483 128.144 516.268 121.533 525.51 117.508C535.011 113.547 543.965 111.237 552.372 110.576C561.037 109.98 568.022 110.065 573.327 110.833C578.955 111.406 581.769 111.692 581.769 111.692ZM573.876 150.123C573.876 150.123 571.68 151.776 567.287 155.081C563.154 158.451 558.473 163.471 553.245 170.141C548.276 176.876 544.538 185.29 542.032 195.383C539.591 205.218 538.828 213.272 539.743 219.544C540.659 225.816 542.09 230.567 544.035 233.798C546.304 236.834 548.215 238.545 549.768 238.93C551.32 239.316 553.94 239.279 557.626 238.82C561.634 238.167 565.705 235.606 569.837 231.136C573.969 226.667 577.287 218.836 579.791 207.643C581.845 198.261 582.673 190.499 582.275 184.355C582.136 178.276 581.189 172.683 579.435 167.576C578.003 162.275 576.15 156.457 573.876 150.123Z"/>
<path d="M441.598 97.6139L486.051 57.8154C486.051 57.8154 487.506 56.579 490.415 54.1064C493.566 51.7458 498.29 50.1141 504.587 49.2111C511.125 48.4202 519.419 50.5002 529.469 55.4511C539.631 60.1601 545.444 65.058 546.907 70.1448C548.725 75.1018 548.029 79.7756 544.819 84.1661C541.963 88.4269 538.372 92.0532 534.046 95.0452C531.473 96.792 526.906 99.6719 520.344 103.685C514.024 107.81 506.883 112.437 498.923 117.565C490.962 122.693 483.234 127.636 475.74 132.392C468.358 136.907 462.206 140.669 457.284 143.678C452.605 146.8 450.265 148.361 450.265 148.361L473.919 263.806C473.919 263.806 474.075 265.054 474.388 267.55C474.813 269.805 474.353 272.383 473.007 275.287C471.904 278.302 469.228 280.589 464.979 282.147C460.972 283.817 454.472 283.891 445.478 282.369C436.485 280.846 429.533 277.772 424.623 273.146C419.955 268.631 416.592 263.84 414.532 258.77C412.585 253.459 411.437 248.96 411.088 245.272C410.74 241.583 410.566 239.739 410.566 239.739L410.654 182.468L368.263 225.427C368.263 225.427 367.154 226.235 364.935 227.852C362.828 229.227 358.972 229.938 353.366 229.986C348.001 230.145 340.48 227.982 330.802 223.498C321.124 219.013 315.134 214.18 312.833 208.999C310.885 203.688 310.921 198.854 312.939 194.499C315.069 189.902 317.71 186.423 320.861 184.063C322.726 182.576 326.641 179.835 332.607 175.839C338.685 171.602 345.584 166.863 353.302 161.623C361.021 156.383 368.507 151.328 375.759 146.459C383.124 141.349 389.146 137.233 393.825 134.111C398.859 130.859 401.376 129.233 401.376 129.233L382.644 28.8541C382.644 28.8541 382.422 27.429 381.98 24.5787C381.779 21.8406 382.407 18.8988 383.865 15.7534C385.323 12.608 388.362 10.4895 392.982 9.39765C397.603 8.30584 404.855 9.46234 414.74 12.8672C423.061 15.8412 429.313 19.4733 433.497 23.7634C437.793 27.8115 440.599 31.904 441.916 36.0407C443.586 40.0476 444.4 43.3641 444.359 45.9901C444.559 48.7283 444.66 50.0973 444.66 50.0973L441.598 97.6139Z"/>
</mask>
<path d="M107.196 95.1336L121.102 37.111C121.102 37.111 121.595 35.2666 122.58 31.5778C123.828 27.8435 126.784 23.8135 131.448 19.4879C136.374 15.1167 144.378 12.1072 155.459 10.4594C166.495 8.54884 174.062 9.26855 178.16 12.6185C182.476 15.6603 184.563 19.8997 184.422 25.3369C184.498 30.4657 183.609 35.4911 181.754 40.4129C180.633 43.3134 178.516 48.2806 175.403 55.3147C172.554 62.3032 169.315 70.171 165.687 78.9181C162.06 87.6651 158.518 96.1267 155.062 104.303C151.561 112.216 148.643 118.81 146.308 124.086C144.237 129.316 143.201 131.931 143.201 131.931L228.347 213.4C228.347 213.4 229.186 214.338 230.863 216.212C232.496 217.824 233.585 220.207 234.131 223.36C234.939 226.467 234.04 229.871 231.433 233.57C229.088 237.223 223.785 240.983 215.524 244.849C207.262 248.715 199.796 250.143 193.126 249.132C186.719 248.077 181.226 246.05 176.648 243.054C172.024 239.795 168.519 236.748 166.134 233.914C163.749 231.079 162.556 229.662 162.556 229.662L130.038 182.518L119.626 241.965C119.626 241.965 119.174 243.262 118.27 245.854C117.32 248.183 114.553 250.963 109.97 254.192C105.65 257.375 98.2347 259.877 87.7244 261.697C77.2141 263.516 69.5384 262.951 64.6974 260C60.0737 256.741 57.3524 252.747 56.5336 248.017C55.6693 243.024 55.8611 238.661 57.1091 234.927C57.7962 232.643 59.4559 228.161 62.0882 221.48C64.6751 214.537 67.651 206.715 71.0159 198.013C74.3809 189.312 77.66 180.896 80.8531 172.765C84.0008 164.372 86.6104 157.56 88.6819 152.33C90.9707 146.792 92.1151 144.023 92.1151 144.023L19.5899 72.1411C19.5899 72.1411 18.597 71.0952 16.611 69.0033C14.8878 66.8659 13.7305 64.0893 13.1392 60.6734C12.5478 57.2576 13.8412 53.7861 17.0194 50.2589C20.1977 46.7317 26.8196 43.5555 36.8852 40.7303C45.4197 38.4409 52.6279 37.8696 58.5098 39.0163C64.3461 39.9004 68.9824 41.6687 72.4186 44.3214C76.0721 46.6659 78.6291 48.9296 80.0895 51.1124C81.8127 53.2498 82.6743 54.3185 82.6743 54.3185L107.196 95.1336Z" fill="#CC5124"/>
<path d="M326.764 62.3669C335.207 67.5352 340.718 72.8758 343.298 78.3887C345.878 83.9016 347.442 87.1878 347.99 88.2473C349.358 90.896 350.433 93.4953 351.213 96.0451C352.209 98.7521 352.707 100.106 352.707 100.106C352.707 100.106 353.93 101.823 356.376 105.257C358.822 108.692 360.706 114.027 362.029 121.264C363.509 128.285 363.016 137.332 360.55 148.406C358.083 159.479 351.908 172.469 342.026 187.375C335.385 197.384 327.905 204.471 319.586 208.635C311.424 212.584 302.864 214.591 293.904 214.657C285.316 214.664 276.819 213.417 268.412 210.915C260.377 208.355 253.029 205.305 246.368 201.767C239.923 198.386 234.682 195.388 230.647 192.775C226.828 190.319 224.918 189.091 224.918 189.091C224.918 189.091 222.764 187.519 218.455 184.376C214.361 181.39 209.662 176.972 204.358 171.122C199.21 165.057 195.005 157.698 191.743 149.048C188.854 140.339 188.349 130.398 190.227 119.225C192.321 108.21 198.534 96.0729 208.865 82.8145C219.197 69.5561 229.768 60.2682 240.578 54.9509C251.761 49.5752 262.391 46.7671 272.469 46.5266C282.762 46.4432 291.926 47.6816 299.961 50.2418C308.211 52.9591 314.647 55.6739 319.27 58.386C324.266 61.0399 326.764 62.3669 326.764 62.3669ZM304.955 94.9794C304.955 94.9794 302.298 95.6814 296.982 97.0855C291.883 98.6467 285.654 101.53 278.296 105.734C271.153 110.096 264.517 116.478 258.388 124.88C252.416 133.067 248.671 140.238 247.153 146.392C245.634 152.546 245.167 157.486 245.75 161.212C246.705 164.879 247.829 167.184 249.122 168.127C250.414 169.07 252.854 170.025 256.44 170.99C260.399 171.898 265.135 171.062 270.648 168.482C276.161 165.901 282.189 159.901 288.731 150.48C294.173 142.567 297.869 135.69 299.818 129.851C301.983 124.168 303.216 118.631 303.518 113.24C304.192 107.791 304.671 101.704 304.955 94.9794Z" fill="#FFC121"/>
<path d="M581.769 111.692C591.537 113.293 598.657 116.16 603.126 120.292C607.595 124.424 610.283 126.877 611.19 127.652C613.457 129.588 615.433 131.59 617.118 133.657C619.062 135.788 620.033 136.854 620.033 136.854C620.033 136.854 621.814 137.982 625.375 140.24C628.936 142.498 632.694 146.728 636.649 152.931C640.669 158.875 643.625 167.439 645.519 178.625C647.413 189.811 646.596 204.171 643.067 221.704C640.693 233.479 636.44 242.864 630.307 249.859C624.239 256.595 617.068 261.684 608.795 265.125C600.845 268.372 592.505 270.423 583.775 271.278C575.368 271.938 567.413 271.886 559.91 271.123C552.665 270.423 546.681 269.624 541.958 268.727C537.494 267.893 535.262 267.476 535.262 267.476C535.262 267.476 532.674 266.834 527.498 265.549C522.58 264.328 516.562 262.009 509.442 258.593C502.386 254.918 495.716 249.69 489.431 242.909C483.469 235.934 479.251 226.919 476.775 215.863C474.558 204.872 475.733 191.288 480.298 175.111C484.864 158.935 491.149 146.345 499.154 137.342C507.483 128.144 516.268 121.533 525.51 117.508C535.011 113.547 543.965 111.237 552.372 110.576C561.037 109.98 568.022 110.065 573.327 110.833C578.955 111.406 581.769 111.692 581.769 111.692ZM573.876 150.123C573.876 150.123 571.68 151.776 567.287 155.081C563.154 158.451 558.473 163.471 553.245 170.141C548.276 176.876 544.538 185.29 542.032 195.383C539.591 205.218 538.828 213.272 539.743 219.544C540.659 225.816 542.09 230.567 544.035 233.798C546.304 236.834 548.215 238.545 549.768 238.93C551.32 239.316 553.94 239.279 557.626 238.82C561.634 238.167 565.705 235.606 569.837 231.136C573.969 226.667 577.287 218.836 579.791 207.643C581.845 198.261 582.673 190.499 582.275 184.355C582.136 178.276 581.189 172.683 579.435 167.576C578.003 162.275 576.15 156.457 573.876 150.123Z" fill="#FFC121"/>
<path d="M441.598 97.6139L486.051 57.8154C486.051 57.8154 487.506 56.579 490.415 54.1064C493.566 51.7458 498.29 50.1141 504.587 49.2111C511.125 48.4202 519.419 50.5002 529.469 55.4511C539.631 60.1601 545.444 65.058 546.907 70.1448C548.725 75.1018 548.029 79.7756 544.819 84.1661C541.963 88.4269 538.372 92.0532 534.046 95.0452C531.473 96.792 526.906 99.6719 520.344 103.685C514.024 107.81 506.883 112.437 498.923 117.565C490.962 122.693 483.234 127.636 475.74 132.392C468.358 136.907 462.206 140.669 457.284 143.678C452.605 146.8 450.265 148.361 450.265 148.361L473.919 263.806C473.919 263.806 474.075 265.054 474.388 267.55C474.813 269.805 474.353 272.383 473.007 275.287C471.904 278.302 469.228 280.589 464.979 282.147C460.972 283.817 454.472 283.891 445.478 282.369C436.485 280.846 429.533 277.772 424.623 273.146C419.955 268.631 416.592 263.84 414.532 258.77C412.585 253.459 411.437 248.96 411.088 245.272C410.74 241.583 410.566 239.739 410.566 239.739L410.654 182.468L368.263 225.427C368.263 225.427 367.154 226.235 364.935 227.852C362.828 229.227 358.972 229.938 353.366 229.986C348.001 230.145 340.48 227.982 330.802 223.498C321.124 219.013 315.134 214.18 312.833 208.999C310.885 203.688 310.921 198.854 312.939 194.499C315.069 189.902 317.71 186.423 320.861 184.063C322.726 182.576 326.641 179.835 332.607 175.839C338.685 171.602 345.584 166.863 353.302 161.623C361.021 156.383 368.507 151.328 375.759 146.459C383.124 141.349 389.146 137.233 393.825 134.111C398.859 130.859 401.376 129.233 401.376 129.233L382.644 28.8541C382.644 28.8541 382.422 27.429 381.98 24.5787C381.779 21.8406 382.407 18.8988 383.865 15.7534C385.323 12.608 388.362 10.4895 392.982 9.39765C397.603 8.30584 404.855 9.46234 414.74 12.8672C423.061 15.8412 429.313 19.4733 433.497 23.7634C437.793 27.8115 440.599 31.904 441.916 36.0407C443.586 40.0476 444.4 43.3641 444.359 45.9901C444.559 48.7283 444.66 50.0973 444.66 50.0973L441.598 97.6139Z" fill="#CC5124"/>
<path d="M107.196 95.1336L121.102 37.111C121.102 37.111 121.595 35.2666 122.58 31.5778C123.828 27.8435 126.784 23.8135 131.448 19.4879C136.374 15.1167 144.378 12.1072 155.459 10.4594C166.495 8.54884 174.062 9.26855 178.16 12.6185C182.476 15.6603 184.563 19.8997 184.422 25.3369C184.498 30.4657 183.609 35.4911 181.754 40.4129C180.633 43.3134 178.516 48.2806 175.403 55.3147C172.554 62.3032 169.315 70.171 165.687 78.9181C162.06 87.6651 158.518 96.1267 155.062 104.303C151.561 112.216 148.643 118.81 146.308 124.086C144.237 129.316 143.201 131.931 143.201 131.931L228.347 213.4C228.347 213.4 229.186 214.338 230.863 216.212C232.496 217.824 233.585 220.207 234.131 223.36C234.939 226.467 234.04 229.871 231.433 233.57C229.088 237.223 223.785 240.983 215.524 244.849C207.262 248.715 199.796 250.143 193.126 249.132C186.719 248.077 181.226 246.05 176.648 243.054C172.024 239.795 168.519 236.748 166.134 233.914C163.749 231.079 162.556 229.662 162.556 229.662L130.038 182.518L119.626 241.965C119.626 241.965 119.174 243.262 118.27 245.854C117.32 248.183 114.553 250.963 109.97 254.192C105.65 257.375 98.2347 259.877 87.7244 261.697C77.2141 263.516 69.5384 262.951 64.6974 260C60.0737 256.741 57.3524 252.747 56.5336 248.017C55.6693 243.024 55.8611 238.661 57.1091 234.927C57.7962 232.643 59.4559 228.161 62.0882 221.48C64.6751 214.537 67.651 206.715 71.0159 198.013C74.3809 189.312 77.66 180.896 80.8531 172.765C84.0008 164.372 86.6104 157.56 88.6819 152.33C90.9707 146.792 92.1151 144.023 92.1151 144.023L19.5899 72.1411C19.5899 72.1411 18.597 71.0952 16.611 69.0033C14.8878 66.8659 13.7305 64.0893 13.1392 60.6734C12.5478 57.2576 13.8412 53.7861 17.0194 50.2589C20.1977 46.7317 26.8196 43.5555 36.8852 40.7303C45.4197 38.4409 52.6279 37.8696 58.5098 39.0163C64.3461 39.9004 68.9824 41.6687 72.4186 44.3214C76.0721 46.6659 78.6291 48.9296 80.0895 51.1124C81.8127 53.2498 82.6743 54.3185 82.6743 54.3185L107.196 95.1336Z" stroke="white" stroke-width="6" mask="url(#path-1-outside-1_2364_60)"/>
<path d="M326.764 62.3669C335.207 67.5352 340.718 72.8758 343.298 78.3887C345.878 83.9016 347.442 87.1878 347.99 88.2473C349.358 90.896 350.433 93.4953 351.213 96.0451C352.209 98.7521 352.707 100.106 352.707 100.106C352.707 100.106 353.93 101.823 356.376 105.257C358.822 108.692 360.706 114.027 362.029 121.264C363.509 128.285 363.016 137.332 360.55 148.406C358.083 159.479 351.908 172.469 342.026 187.375C335.385 197.384 327.905 204.471 319.586 208.635C311.424 212.584 302.864 214.591 293.904 214.657C285.316 214.664 276.819 213.417 268.412 210.915C260.377 208.355 253.029 205.305 246.368 201.767C239.923 198.386 234.682 195.388 230.647 192.775C226.828 190.319 224.918 189.091 224.918 189.091C224.918 189.091 222.764 187.519 218.455 184.376C214.361 181.39 209.662 176.972 204.358 171.122C199.21 165.057 195.005 157.698 191.743 149.048C188.854 140.339 188.349 130.398 190.227 119.225C192.321 108.21 198.534 96.0729 208.865 82.8145C219.197 69.5561 229.768 60.2682 240.578 54.9509C251.761 49.5752 262.391 46.7671 272.469 46.5266C282.762 46.4432 291.926 47.6816 299.961 50.2418C308.211 52.9591 314.647 55.6739 319.27 58.386C324.266 61.0399 326.764 62.3669 326.764 62.3669ZM304.955 94.9794C304.955 94.9794 302.298 95.6814 296.982 97.0855C291.883 98.6467 285.654 101.53 278.296 105.734C271.153 110.096 264.517 116.478 258.388 124.88C252.416 133.067 248.671 140.238 247.153 146.392C245.634 152.546 245.167 157.486 245.75 161.212C246.705 164.879 247.829 167.184 249.122 168.127C250.414 169.07 252.854 170.025 256.44 170.99C260.399 171.898 265.135 171.062 270.648 168.482C276.161 165.901 282.189 159.901 288.731 150.48C294.173 142.567 297.869 135.69 299.818 129.851C301.983 124.168 303.216 118.631 303.518 113.24C304.192 107.791 304.671 101.704 304.955 94.9794Z" stroke="white" stroke-width="6" mask="url(#path-1-outside-1_2364_60)"/>
<path d="M581.769 111.692C591.537 113.293 598.657 116.16 603.126 120.292C607.595 124.424 610.283 126.877 611.19 127.652C613.457 129.588 615.433 131.59 617.118 133.657C619.062 135.788 620.033 136.854 620.033 136.854C620.033 136.854 621.814 137.982 625.375 140.24C628.936 142.498 632.694 146.728 636.649 152.931C640.669 158.875 643.625 167.439 645.519 178.625C647.413 189.811 646.596 204.171 643.067 221.704C640.693 233.479 636.44 242.864 630.307 249.859C624.239 256.595 617.068 261.684 608.795 265.125C600.845 268.372 592.505 270.423 583.775 271.278C575.368 271.938 567.413 271.886 559.91 271.123C552.665 270.423 546.681 269.624 541.958 268.727C537.494 267.893 535.262 267.476 535.262 267.476C535.262 267.476 532.674 266.834 527.498 265.549C522.58 264.328 516.562 262.009 509.442 258.593C502.386 254.918 495.716 249.69 489.431 242.909C483.469 235.934 479.251 226.919 476.775 215.863C474.558 204.872 475.733 191.288 480.298 175.111C484.864 158.935 491.149 146.345 499.154 137.342C507.483 128.144 516.268 121.533 525.51 117.508C535.011 113.547 543.965 111.237 552.372 110.576C561.037 109.98 568.022 110.065 573.327 110.833C578.955 111.406 581.769 111.692 581.769 111.692ZM573.876 150.123C573.876 150.123 571.68 151.776 567.287 155.081C563.154 158.451 558.473 163.471 553.245 170.141C548.276 176.876 544.538 185.29 542.032 195.383C539.591 205.218 538.828 213.272 539.743 219.544C540.659 225.816 542.09 230.567 544.035 233.798C546.304 236.834 548.215 238.545 549.768 238.93C551.32 239.316 553.94 239.279 557.626 238.82C561.634 238.167 565.705 235.606 569.837 231.136C573.969 226.667 577.287 218.836 579.791 207.643C581.845 198.261 582.673 190.499 582.275 184.355C582.136 178.276 581.189 172.683 579.435 167.576C578.003 162.275 576.15 156.457 573.876 150.123Z" stroke="white" stroke-width="6" mask="url(#path-1-outside-1_2364_60)"/>
<path d="M441.598 97.6139L486.051 57.8154C486.051 57.8154 487.506 56.579 490.415 54.1064C493.566 51.7458 498.29 50.1141 504.587 49.2111C511.125 48.4202 519.419 50.5002 529.469 55.4511C539.631 60.1601 545.444 65.058 546.907 70.1448C548.725 75.1018 548.029 79.7756 544.819 84.1661C541.963 88.4269 538.372 92.0532 534.046 95.0452C531.473 96.792 526.906 99.6719 520.344 103.685C514.024 107.81 506.883 112.437 498.923 117.565C490.962 122.693 483.234 127.636 475.74 132.392C468.358 136.907 462.206 140.669 457.284 143.678C452.605 146.8 450.265 148.361 450.265 148.361L473.919 263.806C473.919 263.806 474.075 265.054 474.388 267.55C474.813 269.805 474.353 272.383 473.007 275.287C471.904 278.302 469.228 280.589 464.979 282.147C460.972 283.817 454.472 283.891 445.478 282.369C436.485 280.846 429.533 277.772 424.623 273.146C419.955 268.631 416.592 263.84 414.532 258.77C412.585 253.459 411.437 248.96 411.088 245.272C410.74 241.583 410.566 239.739 410.566 239.739L410.654 182.468L368.263 225.427C368.263 225.427 367.154 226.235 364.935 227.852C362.828 229.227 358.972 229.938 353.366 229.986C348.001 230.145 340.48 227.982 330.802 223.498C321.124 219.013 315.134 214.18 312.833 208.999C310.885 203.688 310.921 198.854 312.939 194.499C315.069 189.902 317.71 186.423 320.861 184.063C322.726 182.576 326.641 179.835 332.607 175.839C338.685 171.602 345.584 166.863 353.302 161.623C361.021 156.383 368.507 151.328 375.759 146.459C383.124 141.349 389.146 137.233 393.825 134.111C398.859 130.859 401.376 129.233 401.376 129.233L382.644 28.8541C382.644 28.8541 382.422 27.429 381.98 24.5787C381.779 21.8406 382.407 18.8988 383.865 15.7534C385.323 12.608 388.362 10.4895 392.982 9.39765C397.603 8.30584 404.855 9.46234 414.74 12.8672C423.061 15.8412 429.313 19.4733 433.497 23.7634C437.793 27.8115 440.599 31.904 441.916 36.0407C443.586 40.0476 444.4 43.3641 444.359 45.9901C444.559 48.7283 444.66 50.0973 444.66 50.0973L441.598 97.6139Z" stroke="white" stroke-width="6" mask="url(#path-1-outside-1_2364_60)"/>
</g>
<defs>
<filter id="filter0_d_2364_60" x="-0.00146484" y="0.00146484" width="659.513" height="300.457" filterUnits="userSpaceOnUse" color-interpolation-filters="sRGB">
<feFlood flood-opacity="0" result="BackgroundImageFix"/>
<feColorMatrix in="SourceAlpha" type="matrix" values="0 0 0 0 0 0 0 0 0 0 0 0 0 0 0 0 0 0 127 0" result="hardAlpha"/>
<feOffset dy="4"/>
<feGaussianBlur stdDeviation="5"/>
<feComposite in2="hardAlpha" operator="out"/>
<feColorMatrix type="matrix" values="0 0 0 0 0 0 0 0 0 0 0 0 0 0 0 0 0 0 0.25 0"/>
<feBlend mode="normal" in2="BackgroundImageFix" result="effect1_dropShadow_2364_60"/>
<feBlend mode="normal" in="SourceGraphic" in2="effect1_dropShadow_2364_60" result="shape"/>
</filter>
</defs>
</svg>
